<svg id="visual" viewBox="0 0 900 600" width="900" height="600" xmlns="http://www.w3.org/2000/svg" xmlns:xlink="http://www.w3.org/1999/xlink" version="1.1"><rect x="0" y="0" width="900" height="600" fill="#0a3743"></rect><path d="M0 243L25 257C50 271 100 299 150 309.3C200 319.7 250 312.3 300 302.8C350 293.3 400 281.7 450 299.7C500 317.7 550 365.3 600 378.7C650 392 700 371 750 374.7C800 378.3 850 406.7 875 420.8L900 435L900 601L875 601C850 601 800 601 750 601C700 601 650 601 600 601C550 601 500 601 450 601C400 601 350 601 300 601C250 601 200 601 150 601C100 601 50 601 25 601L0 601Z" fill="#072931" stroke-linecap="round" stroke-linejoin="miter"></path></svg>