<svg xmlns:svg="http://www.w3.org/2000/svg" xmlns="http://www.w3.org/2000/svg" width="365" height="455" viewBox="-45 0 455 455" >
  <rect x="-45" width="455" height="455" fill="white" rx="60" ry="60" />
  <g transform="scale(1,-1) translate(0 -410)">
    <path d="m 096.88,39.531 53.36,43.489 18.61,-60.309 z m 12.56,170.18 48.29,-21.602 -80.59,-26.238 z m 70.85,44.461 -6.11,-54.801 -49.31,22.059 z m 53.28,78.816 28.24,-102.238 -60.15,42.059 z m 8.72,-180.57 -41.33,30.523 60.8,14.981 z m 41.81,-55.91 -95.77,7.094 56.23,25.66 z m -98.08,76.332 43.19,-31.891 -61.06,-27.871 z m 70.03,41.18 -64.91,-15.989 6.35,56.938 z m -177.31,-69.5 89.81,29.242 -19.17,-64.114 z m 4.95,-93.79 -15.77,80.168 71.1,-35.089 z m 102.62,-26.929 -19.87,64.367 115.63,-8.559 z m 131.73,59.668 c 0.12,0.359 0.18,0.722 0.25,1.101 0.12,0.649 0.16,1.289 0.13,1.938 -0.02,0.363 -0.04,0.691 -0.1,1.051 -0.15,0.8 -0.41,1.57 -0.79,2.3 -0.08,0.161 -0.07,0.332 -0.16,0.493 -0.02,0.027 -0.06,0.046 -0.08,0.089 -0.49,0.797 -1.09,1.547 -1.85,2.168 l -59.25,49.09 27.91,65.199 c 0.19,0.461 0.22,0.954 0.33,1.422 0.09,0.379 0.23,0.731 0.26,1.11 0.1,0.949 0.02,1.879 -0.19,2.789 -0.02,0.09 0,0.191 -0.02,0.293 l -0.02,0.066 v 0 l -40.19,145.543 c -0.93,3.348 -3.81,5.809 -7.26,6.18 -3.56,0.398 -6.82,-1.391 -8.44,-4.461 l -44.34,-83.59 -82.07,-48.492 c -0.38,-0.219 -0.75,-0.469 -1.09,-0.746 -0.73,-0.582 -1.34,-1.262 -1.83,-2.012 l -50.03,-74.109 c -0.1,-0.141 -0.11,-0.332 -0.2,-0.481 -0.39,-0.66 -0.68,-1.351 -0.88,-2.09 -0.08,-0.32 -0.16,-0.609 -0.21,-0.929 -0.03,-0.223 -0.13,-0.422 -0.14,-0.641 -0.05,-0.621 0.05,-1.211 0.14,-1.801 0.02,-0.148 -0.03,-0.301 0,-0.449 l 21.83,-110.949 c 0.03,-0.153 0.11,-0.281 0.15,-0.422 0.07,-0.277 0.18,-0.527 0.28,-0.789 0.27,-0.738 0.62,-1.422 1.07,-2.051 0.11,-0.148 0.13,-0.32 0.25,-0.469 0.06,-0.07 0.15,-0.09 0.21,-0.16 0.72,-0.832 1.59,-1.512 2.58,-2.012 0.23,-0.109 0.45,-0.179 0.69,-0.269 0.39,-0.16 0.76,-0.359 1.18,-0.461 l 103.25,-24.129 c 0.64,-0.148 1.29,-0.219 1.93,-0.219 0.01,0 0.01,0 0.01,0 v 0 c 1.01,0 2,0.25 2.97,0.61 0.24,0.09 0.45,0.179 0.68,0.289 0.2,0.101 0.42,0.14 0.62,0.261 l 128.68,74.989 c 0.07,0.043 0.1,0.109 0.16,0.14 0.83,0.512 1.54,1.161 2.16,1.922 0.23,0.289 0.38,0.629 0.58,0.949 0.23,0.391 0.53,0.731 0.71,1.161 0.07,0.187 0.07,0.39 0.13,0.578"
    fill="#e8a92e" />
    <path d="m 269.62,140.609 c 0,-13.328 -10.8,-24.129 -24.13,-24.129 -13.32,0 -24.12,10.801 -24.12,24.129 0,13.321 10.8,24.121 24.12,24.121 13.33,0 24.13,-10.8 24.13,-24.121"
    fill="#851341" />
    <path d="m 130.52,220.391 c 0,-13.332 -10.8,-24.129 -24.13,-24.129 -13.32,0 -24.12,10.797 -24.12,24.129 0,13.32 10.8,24.121 24.12,24.121 13.33,0 24.13,-10.801 24.13,-24.121"
    fill="#851341" />
    <path d="m 214.74,270.141 c 0,-13.321 -10.8,-24.121 -24.12,-24.121 -13.32,0 -24.12,10.8 -24.12,24.121 0,13.328 10.8,24.129 24.12,24.129 13.32,0 24.12,-10.801 24.12,-24.129"
    fill="#851341" />
    <path d="m 300.41,210.25 c 0,-13.32 -10.8,-24.129 -24.13,-24.129 -13.32,0 -24.12,10.809 -24.12,24.129 0,13.32 10.8,24.121 24.12,24.121 13.33,0 24.13,-10.801 24.13,-24.121"
    fill="#851341" />
    <path d="m 102.21,035.191 c 0,-13.32 -10.8,-24.121 -24.12,-24.121 -13.32,0 -24.12,10.801 -24.12,24.121 0,13.329 10.8,24.129 24.12,24.129 13.32,0 24.12,-10.8 24.12,-24.129"
    fill="#851341" />
    <path d="m 178.76,097.57 c 0,-13.32 -10.8,-24.121 -24.12,-24.121 -13.32,0 -24.12,10.801 -24.12,24.121 0,13.328 10.8,24.129 24.12,24.129 13.32,0 24.12,-10.801 24.12,-24.129"
    fill="#851341" />
    <path d="m 96.46,146.141 c 0,-22.211 -18,-40.211 -40.2,-40.211 -22.21,0 -40.21,18 -40.21,40.211 0,22.199 18,40.211 40.21,40.211 22.2,0 40.2,-18.012 40.2,-40.211"
    fill="#3a8e8f" />
    <path d="m 221.55,011.07 c 0,-22.2106 -18,-40.2106 -40.2,-40.2106 -22.21,0 -40.21,18 -40.21,40.2106 0,22.211 18,40.211 40.21,40.211 22.2,0 40.2,-18 40.2,-40.211"
    fill="#3a8e8f" />
    <path d="m 350.23,086.059 c 0,-22.2 -18,-40.2 -40.21,-40.2 -22.2,0 -40.2,18 -40.2,40.2 0,22.211 18,40.211 40.2,40.211 22.21,0 40.21,-18 40.21,-40.211"
    fill="#3a8e8f" />
    <path d="m 221.55,186.859 c 0,-22.199 -18,-40.199 -40.2,-40.199 -22.21,0 -40.21,18 -40.21,40.199 0,22.211 18,40.211 40.21,40.211 22.2,0 40.2,-18 40.2,-40.211"
    fill="#3a8e8f" />
    <path d="m 276.28,355.852 c 0,-22.204 -18,-40.204 -40.2,-40.204 -22.21,0 -40.21,18 -40.21,40.204 0,22.207 18,40.207 40.21,40.207 22.2,0 40.2,-18 40.2,-40.207"
    fill="#3a8e8f" />
  </g>
</svg>
