<?xml version="1.0" encoding="UTF-8" standalone="no"?>
<!-- Created with Inkscape (http://www.inkscape.org/) -->

<svg
   version="1.1"
   id="svg2"
   width="990"
   height="450"
   viewBox="70 160 990 450"
   xmlns="http://www.w3.org/2000/svg"
   xmlns:svg="http://www.w3.org/2000/svg">
  <defs
     id="defs6">
    <clipPath
       clipPathUnits="userSpaceOnUse"
       id="clipPath16">
      <path
         d="M 0,595.276 H 841.89 V 0 H 0 Z"
         id="path14" />
    </clipPath>
  </defs>
  <g
     id="g8"
     transform="matrix(1.3333333,0,0,-1.3333333,0,793.70133)">
    <g
       id="g10">
      <g
         id="g12"
         clip-path="url(#clipPath16)">
        <g
           id="g18"
           transform="translate(536.9751,157.7812)">
          <path
             d="m 0,0 c 0,-7.728 -1.556,-16.18 -9.439,-16.18 -7.779,0 -9.387,8.452 -9.387,16.18 0,7.831 1.867,16.284 9.387,16.284 C -1.867,16.284 0,7.831 0,0 m 2.956,-0.052 c 0,10.164 -3.475,18.359 -12.395,18.359 -8.867,0 -12.343,-8.195 -12.343,-18.359 0,-10.269 3.476,-18.359 12.343,-18.359 8.92,0 12.395,8.09 12.395,18.359 m 27.59,-17.84 h 3.008 v 35.68 h -2.49 v -28.264 c 0,-2.438 0.208,-4.149 0.208,-4.149 h -0.155 c 0,0 -0.779,1.66 -2.127,3.993 L 12.55,17.788 H 8.764 v -35.68 h 2.489 v 28.938 c 0,2.386 -0.155,4.719 -0.155,4.719 h 0.104 c 0,0 1.088,-2.23 2.488,-4.667 z m 10.269,0 h 14.52 v 2.022 H 43.77 V 17.788 H 40.815 Z M 79.71,-7.884 V 17.788 H 77.065 V -7.884 c 0,-5.134 -3.63,-8.194 -7.675,-8.194 -4.045,0 -7.676,3.06 -7.676,8.194 V 17.788 H 58.758 V -7.884 c 0,-5.704 3.787,-10.579 10.476,-10.579 6.69,0 10.476,4.875 10.476,10.579 m 21.055,22.405 0.83,1.919 c -1.452,1.037 -3.837,1.867 -6.793,1.867 -5.809,0 -9.439,-4.408 -9.439,-9.491 0,-3.475 1.659,-7.157 7.779,-9.44 4.926,-1.866 6.898,-3.992 6.898,-7.622 0,-4.772 -3.008,-7.883 -7.676,-7.883 -3.06,0 -4.979,0.777 -6.431,1.711 L 85,-16.493 c 1.762,-1.14 3.941,-1.918 7.779,-1.918 5.86,0 10.217,4.149 10.217,10.269 0,2.904 -1.09,7.208 -8.247,9.801 -3.318,1.245 -6.482,3.008 -6.482,7.209 0,4.408 2.386,7.364 6.69,7.364 2.489,0 4.563,-0.881 5.808,-1.711"
             style="fill:#706d6e;fill-opacity:1;fill-rule:nonzero;stroke:none"
             id="path20" />
        </g>
        <g
           id="g22"
           transform="translate(717.9854,330.6343)">
          <path
             d="m 0,0 h -17.011 l 6.805,21.658 c 1.41,4.481 1.742,6.887 1.742,6.887 h 0.166 c 0,0 0.249,-2.406 1.66,-6.887 z M 14.521,-21.658 -4.73,35.433 h -6.804 l -19.335,-57.091 h 6.97 l 5.56,17.094 H 1.245 L 6.638,-21.658 Z M 0.608,35.87 10.066,24.584 h 4.15 L 8.407,35.952 c -1.494,0.913 -3.236,1.411 -4.73,1.411 -1.494,0 -2.738,-0.498 -3.069,-1.493 M 9.127,-92.358 h -26.471 v -57.09 H 9.127 v 5.144 H -9.709 v 21.824 H 7.219 v 5.062 H -9.709 v 19.916 H 9.127 Z m -37.091,0 h -7.634 v -57.09 h 7.634 z m 14.52,63.896 h -26.47 v -57.091 h 26.47 v 5.144 H -32.28 v 21.824 h 16.928 v 5.062 H -32.28 v 19.916 h 18.836 z m -28.793,-63.896 h -30.37 v -5.144 h 11.369 v -51.946 h 7.633 v 51.946 h 11.368 z M -65.721,35.433 h -7.633 v -57.091 h 7.633 z m -5.226,-63.895 h -7.634 v -57.091 h 7.634 z m -32.612,-113.353 -1.992,-5.31 c 2.987,-1.908 6.805,-3.153 13.278,-3.153 10.04,0 17.259,6.97 17.259,16.928 0,5.062 -1.659,11.701 -12.944,16.098 -5.228,2.074 -9.544,4.563 -9.544,10.456 0,6.057 3.403,10.04 9.46,10.04 3.817,0 7.054,-1.411 9.045,-2.656 l 1.825,4.813 c -2.489,1.743 -6.472,3.07 -11.7,3.07 -9.958,0 -16.098,-7.385 -16.098,-16.014 0,-5.56 2.572,-11.452 12.115,-15.269 7.136,-2.821 9.957,-5.891 9.957,-10.954 0,-6.472 -4.148,-10.704 -10.704,-10.704 -4.563,0 -7.8,1.328 -9.957,2.655 m 6.972,56.262 v 51.946 h 11.367 v 5.145 h -30.37 v -5.145 h 11.369 v -51.946 z m -13.859,-6.805 h -26.471 v -57.09 h 26.471 v 5.144 h -18.836 v 21.824 h 16.928 v 5.062 h -16.928 v 19.916 h 18.836 z m -84.059,0 -6.805,-57.09 h 6.557 c 0.082,0.829 4.48,42.818 4.48,42.818 0.332,3.402 0.415,6.637 0.415,6.637 h 0.166 c 0,0 0.665,-3.235 1.577,-6.637 0,0 11.7,-41.989 11.949,-42.818 h 5.062 c 0.333,0.995 12.115,42.734 12.115,42.734 0.996,3.568 1.576,6.721 1.576,6.721 h 0.167 c 0,0 0.084,-3.153 0.415,-6.721 0,0 4.315,-41.988 4.397,-42.734 h 7.22 l -6.804,57.09 h -8.049 l -11.783,-41.324 c -1.079,-3.735 -1.494,-6.389 -1.494,-6.389 h -0.167 c 0,0 -0.415,2.654 -1.494,6.471 l -11.451,41.242 z m 4.232,28.463 6.805,21.657 c 1.411,4.482 1.742,6.887 1.742,6.887 h 0.167 c 0,0 0.248,-2.405 1.659,-6.887 l 6.639,-21.657 z m 5.477,35.433 -19.335,-57.091 h 6.971 l 5.56,17.093 h 19.583 l 5.393,-17.093 h 7.884 l -19.251,57.091 z m -8.465,99.244 c 0,12.116 3.818,23.982 14.772,23.982 3.568,0 6.223,-1.162 7.965,-2.24 l 1.826,4.481 c -2.489,1.826 -6.057,3.153 -11.119,3.153 -13.775,0 -21.409,-13.526 -21.409,-29.376 0,-16.181 7.717,-29.374 21.409,-29.374 4.647,0 8.713,1.245 11.203,3.152 l -1.992,4.814 c -2.158,-1.327 -4.481,-2.241 -7.967,-2.241 -10.454,0 -14.688,11.286 -14.688,23.649 m 13.444,-93.27 c 4.647,0 8.713,1.246 11.203,3.153 l -1.992,4.813 c -2.158,-1.327 -4.481,-2.24 -7.967,-2.24 -10.454,0 -14.688,11.286 -14.688,23.649 0,12.116 3.818,23.981 14.772,23.981 3.568,0 6.223,-1.161 7.965,-2.24 l 1.826,4.482 c -2.489,1.825 -6.057,3.152 -11.119,3.152 -13.775,0 -21.409,-13.525 -21.409,-29.375 0,-16.181 7.717,-29.375 21.409,-29.375 m 43.731,86.383 h -17.011 l 6.804,21.658 c 1.411,4.481 1.743,6.887 1.743,6.887 h 0.165 c 0,0 0.25,-2.406 1.66,-6.887 z m 6.637,-21.658 h 7.883 l -19.25,57.091 h -6.805 l -19.334,-57.091 h 6.969 l 5.561,17.094 h 19.583 z M -136.086,0 h -17.011 l 6.804,21.658 c 1.411,4.481 1.743,6.887 1.743,6.887 h 0.165 c 0,0 0.25,-2.406 1.66,-6.887 z m 6.637,-21.658 h 7.883 l -19.25,57.091 h -6.805 l -19.334,-57.091 h 6.969 l 5.561,17.094 h 19.583 z m 2.573,-23.234 c 0,-8.215 -4.481,-12.862 -13.775,-12.862 -1.991,0 -4.067,0.248 -4.896,0.497 v 23.898 c 1.494,0.831 3.652,1.245 6.473,1.245 8.381,0 12.198,-4.066 12.198,-12.778 m 7.55,0.331 c 0,10.621 -6.637,16.928 -19.583,16.928 -6.141,0 -11.201,-1.411 -14.19,-3.071 v -54.849 h 7.552 v 26.636 h 0.166 l 18.753,-26.636 h 8.631 l -18.672,25.142 v 0.166 c 10.457,0.167 17.343,5.975 17.343,15.684 m 9.128,129.451 c 0,6.057 3.403,10.039 9.46,10.039 3.818,0 7.054,-1.41 9.045,-2.655 l 1.825,4.813 c -2.489,1.744 -6.472,3.071 -11.699,3.071 -9.959,0 -16.099,-7.387 -16.099,-16.015 0,-5.56 2.572,-11.452 12.115,-15.269 7.136,-2.821 9.957,-5.892 9.957,-10.954 0,-6.473 -4.147,-10.704 -10.704,-10.704 -4.563,0 -7.799,1.328 -9.957,2.655 l -1.992,-5.311 c 2.987,-1.907 6.805,-3.152 13.277,-3.152 10.041,0 17.26,6.97 17.26,16.928 0,5.061 -1.659,11.7 -12.945,16.098 -5.227,2.074 -9.543,4.563 -9.543,10.456 m 20.497,-65.887 c 0,-8.215 -4.481,-12.862 -13.775,-12.862 -1.991,0 -4.067,0.248 -4.896,0.497 v 23.898 c 1.494,0.831 3.652,1.245 6.473,1.245 8.38,0 12.198,-4.066 12.198,-12.778 m 7.55,0.331 c 0,10.621 -6.637,16.928 -19.583,16.928 -6.14,0 -11.201,-1.41 -14.189,-3.071 v -54.849 h 7.551 V 4.979 h 0.166 l 18.754,-26.637 h 8.629 L -99.493,3.485 V 3.65 c 10.456,0.167 17.342,5.975 17.342,15.684 m 29.21,44.561 h -17.011 l 6.804,21.658 c 1.411,4.481 1.743,6.887 1.743,6.887 h 0.165 c 0,0 0.25,-2.406 1.66,-6.887 z m 6.637,-21.658 h 7.883 l -19.25,57.091 h -6.805 L -83.81,42.237 h 6.969 l 5.561,17.094 h 19.584 z m 6.307,-11.949 h 11.368 v 5.145 H -59 v -5.145 h 11.369 v -51.946 h 7.634 z M 18.088,71.447 C 18.088,55.348 13.691,46.8 2.156,46.8 c -2.905,0 -5.477,0.416 -7.137,1.079 V 94.1 c 1.993,0.829 4.066,1.162 7.054,1.162 10.871,0 16.015,-8.133 16.015,-23.815 m 7.883,-0.084 c 0,17.675 -7.966,28.795 -23.732,28.795 -6.225,0 -11.452,-1.327 -14.771,-3.153 V 44.477 c 2.988,-1.742 8.546,-3.069 15.103,-3.069 16.18,0 23.4,12.364 23.4,29.955 M 34.6,42.237 h 7.634 V 99.328 H 34.6 Z m -5.143,-163.886 c -1.992,0 -4.067,0.248 -4.896,0.497 v 23.898 c 1.494,0.83 3.651,1.245 6.472,1.245 8.38,0 12.198,-4.066 12.198,-12.779 0,-8.214 -4.48,-12.861 -13.774,-12.861 m 3.982,-2.657 v 0.166 c 10.456,0.167 17.343,5.974 17.343,15.684 0,10.621 -6.637,16.927 -19.583,16.927 -6.141,0 -11.202,-1.41 -14.19,-3.07 v -54.849 h 7.552 v 26.636 h 0.166 l 18.753,-26.636 h 8.63 z m 33.773,31.948 h -7.634 v -57.09 h 7.634 z"
             style="fill:#173e7d;fill-opacity:1;fill-rule:nonzero;stroke:none"
             id="path24" />
        </g>
        <g
           id="g26"
           transform="translate(519.5391,470.4263)">
          <path
             d="M 0,0 H 12.655 V 2.022 H -2.957 V -33.66 H 0 v 17.53 h 11.513 v 2.023 l -11.513,0 z m 37.548,-15.767 c 0,-7.728 -1.556,-16.181 -9.439,-16.181 -7.779,0 -9.387,8.453 -9.387,16.181 0,7.831 1.867,16.285 9.387,16.285 7.572,0 9.439,-8.454 9.439,-16.285 m 2.956,-0.052 c 0,10.165 -3.475,18.36 -12.395,18.36 -8.868,0 -12.343,-8.195 -12.343,-18.36 0,-10.269 3.475,-18.359 12.343,-18.359 8.92,0 12.395,8.09 12.395,18.359 M 68.095,-33.66 h 3.008 V 2.022 h -2.49 v -28.265 c 0,-2.438 0.208,-4.149 0.208,-4.149 h -0.155 c 0,0 -0.779,1.66 -2.127,3.994 L 50.098,2.022 H 46.312 V -33.66 h 2.49 v 28.94 c 0,2.386 -0.156,4.72 -0.156,4.72 h 0.104 c 0,0 1.089,-2.231 2.489,-4.668 z m 29.821,18.308 c 0,-10.425 -3.112,-16.7 -11.359,-16.7 -2.23,0 -4.252,0.363 -5.445,0.882 v 31.014 c 1.452,0.57 3.112,0.83 5.342,0.83 7.676,0 11.462,-5.705 11.462,-16.026 m 3.112,0 c 0,11.358 -5.239,17.893 -14.159,17.893 -3.734,0 -6.898,-0.83 -8.713,-1.92 v -32.932 c 1.556,-1.038 4.927,-1.867 8.817,-1.867 9.387,0 14.055,7.416 14.055,18.826 m 21.626,-4.2 H 110.83 l 4.719,14.469 c 0.985,2.956 1.245,4.305 1.245,4.305 h 0.103 c 0,0 0.155,-1.401 1.089,-4.357 z m 4.564,-14.108 h 3.06 L 118.039,2.022 h -2.334 L 103.362,-33.66 h 2.8 l 4.046,12.188 h 13.069 z m 4.305,0 h 18.307 v 2.023 H 135.361 L 149.363,2.022 H 132.145 V 0 h 13.485 z m 22.975,0 h 2.956 V 2.022 h -2.956 z m 30.753,17.893 c 0,-7.728 -1.555,-16.181 -9.438,-16.181 -7.78,0 -9.388,8.453 -9.388,16.181 0,7.831 1.867,16.285 9.388,16.285 7.57,0 9.438,-8.454 9.438,-16.285 m 2.957,-0.052 c 0,10.165 -3.476,18.36 -12.395,18.36 -8.869,0 -12.344,-8.195 -12.344,-18.36 0,-10.269 3.475,-18.359 12.344,-18.359 8.919,0 12.395,8.09 12.395,18.359 m 27.59,-17.841 h 3.008 V 2.022 h -2.49 v -28.265 c 0,-2.438 0.208,-4.149 0.208,-4.149 h -0.155 c 0,0 -0.779,1.66 -2.127,3.994 l -16.44,28.42 h -3.787 V -33.66 h 2.49 v 28.94 c 0,2.386 -0.156,4.72 -0.156,4.72 h 0.105 c 0,0 1.089,-2.231 2.488,-4.668 z m 13.018,2.023 v 15.507 h 11.565 v 2.023 H 228.816 V 0 h 12.758 V 2.022 H 225.859 V -33.66 h 15.715 v 2.023 z"
             style="fill:#706d6e;fill-opacity:1;fill-rule:nonzero;stroke:none"
             id="path28" />
        </g>
        <path
           d="M 167.46,472.967 H 324.112 V 354.235 H 167.46 Z"
           style="fill:#173e7d;fill-opacity:1;fill-rule:nonzero;stroke:none"
           id="path30" />
        <g
           id="g32"
           transform="translate(346.2354,214.2119)">
          <path
             d="M 0,0 72.611,117.899 H 83.364 L 0,-34.753 Z"
             style="fill:#173e7d;fill-opacity:1;fill-rule:nonzero;stroke:none"
             id="path34" />
        </g>
        <g
           id="g36"
           transform="translate(346.2354,260.1855)">
          <path
             d="M 0,0 54.209,71.926 H 65.175 L 0,-23.185 Z"
             style="fill:#173e7d;fill-opacity:1;fill-rule:nonzero;stroke:none"
             id="path38" />
        </g>
        <g
           id="g40"
           transform="translate(346.2354,292.2148)">
          <path
             d="M 0,0 35.505,39.896 H 46.682 L 0,-16.839 Z"
             style="fill:#173e7d;fill-opacity:1;fill-rule:nonzero;stroke:none"
             id="path42" />
        </g>
        <g
           id="g44"
           transform="translate(315.9941,332.1113)">
          <path
             d="M 0,0 -148.534,-109.411 V 0 Z"
             style="fill:#173e7d;fill-opacity:1;fill-rule:nonzero;stroke:none"
             id="path46" />
        </g>
        <g
           id="g48"
           transform="translate(473.1782,447.8931)">
          <path
             d="M 0,0 -126.943,-93.507 V 25.074 H 26.142 V -93.658 h -51.835 l 39.704,83.333 -45.508,-83.333 h -9.21 L 11.676,-8.604 -46.608,-93.658 H -56.06 L 9.341,-6.883 -62.058,-93.658 H -71.75 L 7.006,-5.163 -77.843,-93.658 h -9.798 L 4.67,-3.442 -93.958,-93.658 h -10.154 L 2.335,-1.721 -110.395,-93.658 h -10.377 z"
             style="fill:#173e7d;fill-opacity:1;fill-rule:nonzero;stroke:none"
             id="path50" />
        </g>
        <g
           id="g52"
           transform="translate(324.1123,322.6963)">
          <path
             d="m 0,0 -156.652,-127.758 v 15.871 L -0.234,9.415 Z"
             style="fill:#173e7d;fill-opacity:1;fill-rule:nonzero;stroke:none"
             id="path54" />
        </g>
        <g
           id="g56"
           transform="translate(324.1123,303.8252)">
          <path
             d="m 0,0 -156.652,-143.292 v 19.575 L 0,11.582 Z"
             style="fill:#173e7d;fill-opacity:1;fill-rule:nonzero;stroke:none"
             id="path58" />
        </g>
        <g
           id="g60"
           transform="translate(355.0342,332.1113)">
          <path
             d="M 0,0 -8.799,-8.049 V 0 Z"
             style="fill:#173e7d;fill-opacity:1;fill-rule:nonzero;stroke:none"
             id="path62" />
        </g>
        <g
           id="g64"
           transform="translate(346.2354,315.8252)">
          <path
             d="M 0,0 16.664,16.286 H 27.888 L 0,-12.801 Z"
             style="fill:#173e7d;fill-opacity:1;fill-rule:nonzero;stroke:none"
             id="path66" />
        </g>
        <g
           id="g68"
           transform="translate(324.1123,279.8887)">
          <path
             d="m 0,0 -133.062,-138.781 h -23.527 L 0,14.254 Z"
             style="fill:#173e7d;fill-opacity:1;fill-rule:nonzero;stroke:none"
             id="path70" />
        </g>
        <g
           id="g72"
           transform="translate(324.1123,178.2285)">
          <path
             d="M 0,0 V -37.121 H -22.862 Z"
             style="fill:#173e7d;fill-opacity:1;fill-rule:nonzero;stroke:none"
             id="path74" />
        </g>
        <g
           id="g76"
           transform="translate(324.1123,204.6553)">
          <path
             d="M 0,0 -43.547,-63.548 H -67.578 L 0,26.115 Z"
             style="fill:#173e7d;fill-opacity:1;fill-rule:nonzero;stroke:none"
             id="path78" />
        </g>
        <g
           id="g80"
           transform="translate(324.1123,248.4258)">
          <path
             d="m 0,0 -88.302,-107.318 h -23.995 L 0,18.867 Z"
             style="fill:#173e7d;fill-opacity:1;fill-rule:nonzero;stroke:none"
             id="path82" />
        </g>
        <g
           id="g84"
           transform="translate(499.3203,332.1113)">
          <path
             d="M 0,0 V -191.004 H -153.085 L -62.376,0 Z"
             style="fill:#173e7d;fill-opacity:1;fill-rule:nonzero;stroke:none"
             id="path86" />
        </g>
        <g
           id="g88"
           transform="translate(77.5815,141.1084)">
          <path
             d="M 0,0 H -20.889 L 89.878,81.592 V 69.701 Z"
             style="fill:#f25c19;fill-opacity:1;fill-rule:nonzero;stroke:none"
             id="path90" />
        </g>
        <g
           id="g92"
           transform="translate(167.46,141.1074)">
          <path
             d="M 0,0 -21.236,0.001 0,19.426 Z"
             style="fill:#f25c19;fill-opacity:1;fill-rule:nonzero;stroke:none"
             id="path94" />
        </g>
        <g
           id="g96"
           transform="translate(122.3052,141.1084)">
          <path
             d="M 0,0 H -20.849 L 45.155,53.83 V 39 Z"
             style="fill:#f25c19;fill-opacity:1;fill-rule:nonzero;stroke:none"
             id="path98" />
        </g>
      </g>
    </g>
  </g>
</svg>
