<svg xmlns="http://www.w3.org/2000/svg" width="365" height="455" viewBox="0 0 365 455" >
    <!--rect x="-45" width="455" height="455" fill="white" rx="60" ry="60" /-->
    <g transform="scale(1,-1) translate(0 -410)">
        <g stroke="#e8a92e" stroke-width="17.5">
            <path d="M181.35,11.07 L310.02,86.05"/>
            <path d="M181.35,11.07 L78.08,35.19"/>
            <path d="M181.35,11.07 L154.63,97.57"/>
            <path d="M310.02,86.05 L154.63,97.57"/>
            <path d="M310.02,86.05 L245.49,140.61"/>
            <path d="M56.25,146.14 L181.35,186.86"/>
            <path d="M56.25,146.14 L78.08,35.19"/>
            <path d="M56.25,146.14 L154.63,97.57"/>
            <path d="M56.25,146.14 L106.39,220.39"/>
            <path d="M181.35,186.86 L154.63,97.57"/>
            <path d="M181.35,186.86 L245.49,140.61"/>
            <path d="M181.35,186.86 L276.28,210.25"/>
            <path d="M181.35,186.86 L190.61,270.14"/>
            <path d="M181.35,186.86 L106.39,220.39"/>
            <path d="M236.07,355.85 L276.28,210.25"/>
            <path d="M236.07,355.85 L190.61,270.14"/>
            <path d="M78.08,35.19L154.63,97.57L245.49,140.61L276.28,210.25L190.61,270.14L106.39,220.39"/>
        </g>
        <g fill="#851341">
            <ellipse cx="078.08" cy="035.19" rx="24.13" ry="24.13" />
            <ellipse cx="154.63" cy="097.57" rx="24.13" ry="24.13" />
            <ellipse cx="245.49" cy="140.61" rx="24.13" ry="24.13" />
            <ellipse cx="276.28" cy="210.25" rx="24.13" ry="24.13" />
            <ellipse cx="106.39" cy="220.39" rx="24.13" ry="24.13" />
            <ellipse cx="190.61" cy="270.14" rx="24.13" ry="24.13" />
        </g>
        <g fill="#3a8e8f">
            <ellipse cx="181.35" cy="011.07" rx="40.2" ry="40.2" />
            <ellipse cx="310.02" cy="086.05" rx="40.2" ry="40.2" />
            <ellipse cx="056.25" cy="146.14" rx="40.2" ry="40.2" />
            <ellipse cx="181.35" cy="186.86" rx="40.2" ry="40.2" />
            <ellipse cx="236.07" cy="355.85" rx="40.2" ry="40.2" />
        </g>
    </g>
</svg>
